<?xml version="1.0" encoding="UTF-8"?>
<svg id="uuid-69498c39-1c12-42ce-87f9-1ed2b9c94c7e" xmlns="http://www.w3.org/2000/svg" viewBox="0 0 305.99 174.42">
  <line id="box-left" x1="2.5" y1="24.29" x2="2.5" y2="174.42" style="fill: none; stroke: white; stroke-miterlimit: 10; stroke-width: 5px;"/>
  <line id="box-bottom" x1="2.5" y1="171.7" x2="303.44" y2="169.31" style="fill: none; stroke: white; stroke-miterlimit: 10; stroke-width: 5px;"/>
  <line id="box-right" x1="303.38" y1="21.54" x2="303.49" y2="171.7" style="fill: none; stroke: white; stroke-miterlimit: 10; stroke-width: 5px;"/>
  <g id="text">
    <path d="M21.39,28.8c0-.84,.06-2.4,.6-4.32L28.47,.36h5.22l-6.6,24.72c-.36,1.32-.54,2.52-.54,3.66,0,4.5,2.88,7.32,7.92,7.32s9.54-2.88,11.34-9.54L52.83,.36h5.22l-7.02,26.16c-2.58,9.54-7.68,14.04-16.98,14.04-7.44,0-12.66-4.14-12.66-11.76Z" style="fill: white;"/>
    <path d="M63.93,14.16h1.56c1.74,0,2.52-.06,3.3-.36l-1.38,5.04c2.22-3.9,5.1-5.28,7.8-5.28,3.12,0,5.7,1.86,6.42,4.86l-4.38,2.28c-.72-2.04-2.04-3.06-4.02-3.06-3.3,0-6.24,2.88-7.74,8.46l-3.72,13.86h-4.74l6.9-25.8h0Z" style="fill: white;"/>
    <path d="M87.09,33.9l-1.62,6.06h-4.74L91.35,.36h1.5c1.74,0,2.64-.06,3.36-.36l-5.28,19.56c2.16-3.66,5.7-6,9.6-6,6,0,9.78,5.4,9.78,10.98,0,9.6-7.86,16.02-14.52,16.02-4.5,0-7.5-2.76-8.7-6.66Zm18.36-9c0-4.44-2.52-7.26-6.12-7.26-5.58,0-11.04,5.94-11.04,12.18,0,4.38,3.18,6.66,6.78,6.66,5.82,0,10.38-5.28,10.38-11.58Z" style="fill: white;"/>
    <path d="M114.63,29.58c0-9.6,7.86-16.02,14.52-16.02,4.5,0,7.56,2.76,8.76,6.66l1.62-6.06h1.5c1.74,0,2.64-.06,3.36-.36l-7.02,26.16h-4.74l1.44-5.4c-2.16,3.66-5.76,6-9.66,6-6,0-9.78-5.4-9.78-10.98h0Zm22.02-5.28c0-4.38-3.18-6.66-6.78-6.66-5.82,0-10.38,5.28-10.38,11.58,0,4.44,2.52,7.26,6.12,7.26,5.58,0,11.04-5.94,11.04-12.18Z" style="fill: white;"/>
    <path d="M153.39,14.16h1.56c1.74,0,2.52-.06,3.3-.36l-1.38,5.04c2.46-3.42,5.7-5.28,9.24-5.28,5.22,0,7.86,3.18,7.86,7.44,0,1.14-.24,2.34-.6,3.66l-4.08,15.3h-4.74l4.02-15c.3-1.26,.48-2.28,.48-3.18,0-2.76-1.56-4.02-4.62-4.02-4.5,0-8.04,2.94-9.48,8.34l-3.72,13.86h-4.74l6.9-25.8h0Z" style="fill: white;"/>
    <path d="M15.33,106.08l4.2-3.24c1.74,3.12,5.4,5.28,9.9,5.28,5.94,0,10.08-3.9,10.08-7.98,0-2.76-1.74-4.2-4.8-5.28l-3.48-1.2c-5.28-1.8-7.38-4.62-7.38-8.94,0-7.32,7.08-12.96,15.18-12.96,5.28,0,10.32,2.28,12.18,5.76l-4.08,3.3c-1.62-2.94-4.74-4.62-8.52-4.62-5.64,0-9.48,3.84-9.48,7.92,0,2.88,1.74,4.32,4.8,5.4l3.48,1.2c5.16,1.8,7.38,4.5,7.38,8.76,0,7.38-7.38,13.08-15.72,13.08-6.06,0-11.82-2.88-13.74-6.48Z" style="fill: white;"/>
    <path d="M53.13,105.3c0-1.08,.18-2.16,.48-3.24l3.24-12.18h-4.98l.84-3.24h.66c4.14,0,5.52-1.38,6.42-4.74l1.02-3.9h.78c1.74,0,2.52-.06,3.3-.36l-2.28,8.52h9.9l-.96,3.72h-9.96l-3.42,12.72c-.24,.84-.36,1.8-.36,2.52,0,2.28,1.2,3.48,3.3,3.48,1.98,0,3.3-1.08,4.56-2.7l3.12,2.58c-1.98,2.64-4.86,4.08-8.22,4.08-4.86,0-7.44-3.06-7.44-7.26Z" style="fill: white;"/>
    <path d="M74.01,105.24c0-1.38,.3-2.58,.66-3.96l4.02-15.12h1.56c1.74,0,2.46-.06,3.3-.36l-4.14,15.42c-.36,1.32-.48,2.28-.48,3.06,0,2.76,1.38,4.08,4.38,4.08,4.44,0,8.04-2.7,9.54-8.28l3.72-13.92h1.56c1.74,0,2.58-.06,3.3-.36l-7.02,26.16h-4.74l1.26-4.74c-2.4,3.48-5.7,5.34-9.36,5.34-4.92,0-7.56-3.24-7.56-7.32Z" style="fill: white;"/>
    <path d="M104.61,101.58c0-9.6,7.86-16.02,14.52-16.02,4.5,0,7.56,2.76,8.76,6.66l5.34-19.86h1.5c1.74,0,2.64-.06,3.36-.36l-10.74,39.96h-4.74l1.44-5.4c-2.16,3.66-5.76,6-9.66,6-6,0-9.78-5.4-9.78-10.98h0Zm22.02-5.28c0-4.38-3.18-6.66-6.78-6.66-5.82,0-10.38,5.28-10.38,11.58,0,4.44,2.52,7.26,6.12,7.26,5.58,0,11.04-5.94,11.04-12.18Z" style="fill: white;"/>
    <path d="M143.37,86.16h1.56c1.74,0,2.52-.06,3.3-.36l-7.02,26.16h-4.74l6.9-25.8h0Zm1.44-8.22c0-2.1,1.8-3.78,3.66-3.78s2.94,1.14,2.94,2.7c0,2.1-1.8,3.78-3.66,3.78s-2.94-1.14-2.94-2.7Z" style="fill: white;"/>
    <path d="M151.47,101.58c0-9.48,8.16-16.02,15.78-16.02,6.42,0,11.04,5.04,11.04,10.98,0,9.48-8.1,16.02-15.78,16.02-6.42,0-11.04-5.04-11.04-10.98Zm21.96-4.98c0-4.14-2.64-6.96-6.66-6.96-5.28,0-10.44,5.1-10.44,11.88,0,4.14,2.64,6.96,6.66,6.96,5.28,0,10.44-5.1,10.44-11.88Z" style="fill: white;"/>
    <path d="M180.57,108.18l3.24-2.88c1.38,1.86,3.84,3.48,7.5,3.48,3.84,0,6.24-1.74,6.24-4.32,0-1.26-.6-2.34-3.66-3.12l-3.12-.78c-4.08-1.02-5.7-3.72-5.7-6.6,0-4.92,4.86-8.4,10.62-8.4,4.32,0,8.16,1.98,9.72,4.62l-3.3,2.82c-1.38-2.16-3.9-3.66-6.72-3.66s-5.7,1.62-5.7,4.32c0,1.26,.6,2.58,3.54,3.3l3.12,.78c4.08,1.02,5.82,3.48,5.82,6.54,0,4.8-4.32,8.28-11.16,8.28-4.26,0-8.52-1.38-10.44-4.38Z" style="fill: white;"/>
  </g>
  <line id="box-top" x1="303.38" y1="24.29" x2="182.76" y2="24.29" style="fill: none; stroke: white; stroke-miterlimit: 10; stroke-width: 5px;"/>
  <g id="paint">
    <path d="M285.04,116.7c.35-.3-.42-.69-.49-.84-.33,.68,.67,.96,.49,.84Z" style="fill: white;"/>
    <polygon points="281.34 123.56 281.2 123.22 280.96 124.62 281.34 123.56" style="fill: white;"/>
    <path d="M275.86,128.29c1.43,.7,1.93-1.81,3.21-2.29l.38,.1-.32-1.24c-.53,.58-1.05,1.34-1.58,2.02-.56,.65-1.12,1.21-1.68,1.4h-.01Z" style="fill: white;"/>
    <path d="M270.97,128.07c.51,.32-.38,.87,.81-.37-.1,0-.14,0-.21-.02-.12,.1-.29,.22-.6,.39Z" style="fill: white;"/>
    <path d="M271.56,127.68c.57-.46-.66-.1,0,0h0Z" style="fill: white;"/>
    <path d="M268.92,129.89l.54-.96c-.35-.16-1.11,.26-.98-.12-.68,.78-.34,.94,.44,1.07h0Z" style="fill: white;"/>
    <path d="M268.7,131.28l.31-.46c-.15-.07-.29-.03-.31,.46Z" style="fill: white;"/>
    <path d="M269.68,129.85l-.66,.97c.24,.11,.51,.49,.33-.41,.16,.4,.12-.06,.33-.56h0Z" style="fill: white;"/>
    <path d="M270.31,129.69c.64-.05,1.35-.29,.8,.67,.75-.6,.88-1.11,.69-1.27-.2-.16-.74,0-1.48,.6h0Z" style="fill: white;"/>
    <path d="M276.47,129.69l.86-.15,.23-.79c-.11,.39-1.4,.62-1.09,.94h0Z" style="fill: white;"/>
    <path d="M263.29,132.45c.1,.3,.69,.54,.95,.84l.47-.67c-.43,0-1.15,.19-1.41-.17h-.01Z" style="fill: white;"/>
    <path d="M264.24,133.29l-.7,1c.89-.44,.93-.74,.7-1Z" style="fill: white;"/>
    <path d="M269.41,132.71l.92-1.93c-.4,.7-.79,1.43-1.22,2.13l.3-.2h0Z" style="fill: white;"/>
    <polygon points="259.59 134.42 259.82 133.51 259.33 134.97 259.59 134.42" style="fill: white;"/>
    <path d="M257.15,135.79c.16-.73-1-.6-.72-1.14-.62,.43-.99,1.16-1.33,1.82,.46-.49,1.08-.72,2.06-.68h-.01Z" style="fill: white;"/>
    <path d="M254.48,137.48c.22-.26,.41-.62,.62-1.01-.24,.26-.46,.58-.62,1.01Z" style="fill: white;"/>
    <path d="M261.8,135.07c-.16-.12-.54-.47-1.18-.36l.79,.55c.12-.06,.26-.13,.39-.19h0Z" style="fill: white;"/>
    <path d="M261.43,135.28l-.03-.02c-.43,.2-.73,.34-.86,.4,.11-.05,.38-.16,.88-.38h0Z" style="fill: white;"/>
    <path d="M261.9,135.02l-.1,.05c.08,.05,.11,.07,.1-.05Z" style="fill: white;"/>
    <path d="M266.5,133.59c-.31,.76-1.27,1.87,.27,1.84,.11-.74-.75-.71-.27-1.84Z" style="fill: white;"/>
    <path d="M262.89,135.7c.39-.13,.76-.27,1.14-.41-.13-.19-.48-.37-.31-.73-.27,.38-.54,.77-.82,1.14h-.01Z" style="fill: white;"/>
    <polygon points="262.5 136.22 262.89 135.7 262.47 135.85 262.5 136.22" style="fill: white;"/>
    <path d="M256.66,137.34c-.3,.56-.8,.82-1.35,1.15,.69-.14,1.38-.35,1.97-.65-.03-.28,.02-.85-.62-.5Z" style="fill: white;"/>
    <path d="M259.03,136.43s-.06,.06-.08,.09c.1,.03,.16,.03,.08-.09Z" style="fill: white;"/>
    <path d="M249.56,141.06l.15,.1s-.02-.09-.04-.14l-.12,.04h0Z" style="fill: white;"/>
    <path d="M257.46,137.93c.53-.08,.71-.41,.86-.77-.3,.25-.64,.48-1.03,.68,.01,.13,.04,.2,.17,.09h0Z" style="fill: white;"/>
    <path d="M253.07,138.58c.32,.06,.66,.06,1,.06-.35-.13-1.01-.29-1-.06Z" style="fill: white;"/>
    <path d="M258.69,136.39s.03-.05,.05-.07c-.23-.09-.17-.02-.05,.07Z" style="fill: white;"/>
    <path d="M258.69,136.39c-.18,.23-.27,.51-.37,.77,.25-.2,.47-.41,.63-.63-.08-.03-.18-.08-.26-.13h0Z" style="fill: white;"/>
    <path d="M249.92,146.88c-.22-.77,.77-1.98,2.21-1.67,.85-1.01-.91-3.09-2.41-4.03,.1,.33,.23,.62-.69,1.52,.55,.24,2.85-.11,2.2,.94-1.31,1-1.32,.26-2.19,.17,1,.66-1.32,2.11-.45,3.32l1.11-1.01c.11,.2-.22,.73,.22,.77h0Z" style="fill: white;"/>
    <path d="M251.82,140.33l.41-.29c-.56,.1-1.06-.03-1.97-.3-.59,.67-.63,1.01-.58,1.27,.76-.28,1.5-.57,2.25-.86l-.1,.18h0Z" style="fill: white;"/>
    <path d="M254.23,139.14c.02,.95-.91,1.76,.14,2.32,1.29-.66,.62-1.08,1.24-1.78-2.01,1.18,.4-.72-1.32-.45,.35-.33,.7-.54,1.03-.74-.42,.08-.84,.13-1.24,.15,.03,0,.05,.02,.07,.03h0c.13,.06,.19,.1,.06,.09,0,0-.03,.03-.04,.04,.04,.12,.04,.23,.04,.34-.68,.12-.19-.16-.04-.34,0-.04,0-.09-.03-.13h0c-.62,.48-1.27,.92-1.91,1.38,.49-.09,1.05-.36,1.99-.9h.02Z" style="fill: white;"/>
    <path d="M266.61,137.65c-.1-.03-.13-.08-.17-.14-.08,.17-.1,.26,.17,.14Z" style="fill: white;"/>
    <path d="M265.51,137.68c.09-.19,.04-.56,.57-.76,.55,0,.2,.36,.37,.59,.18-.37,.71-1.12-.41-.96l-.09,.18c-.97,.21-2.53-.14-2.45-.33,.62,.56,1.09,.91,2.01,1.27h0Z" style="fill: white;"/>
    <path d="M259.9,138.76l-1.55,1.25,1.22,.23-.24-.38c1.07-.34,.61-.72,.58-1.09h-.01Z" style="fill: white;"/>
    <polygon points="249.19 140.76 249.07 139.82 248.54 141.44 249.19 140.76" style="fill: white;"/>
    <polygon points="246.92 141.84 246.7 141.07 246.27 141.76 246.92 141.84" style="fill: white;"/>
    <path d="M126.33,159.2c-.24,.05-.47,.06-.71,.09,.33,0,.55-.03,.71-.09Z" style="fill: white;"/>
    <path d="M131.27,159.75l.13-.39c-.23,.22-.33,.38-.13,.39Z" style="fill: white;"/>
    <path d="M202.32,120.35c-.7-1.41-1.97-3.09-2.11-2.19,.04,.33,.07,.65,.09,.97,.97,.23,1.6,.71,2.02,1.22Z" style="fill: white;"/>
    <path d="M161.75,140.31c.12,0,.24,.03,.36,.04-.04-.36-.07-.7-.1-1-.08,.29-.17,.62-.26,.96Z" style="fill: white;"/>
    <path d="M163.61,143.45l-1.23,.3c.32,0,.72-.1,1.23-.3Z" style="fill: white;"/>
    <path d="M103.51,148.05l-1.13,.2c.86,.74,.77,.07,1.13-.2Z" style="fill: white;"/>
    <path d="M225.14,146.73c-.41-.5-.76-.75-1.08-.98,.19,.38,.36,.78,.54,1,.17,.23,.35,.29,.55-.02h0Z" style="fill: white;"/>
    <path d="M129.32,150.34c-.31,.11-.46,.27-.48,.46,.33-.1,.52-.24,.48-.46Z" style="fill: white;"/>
    <path d="M222.63,145.04c.04,.13,.11,.22,.16,.33,.43,.08,.85,.11,1.27,.38-.29-.57-.67-.92-1.42-.71h-.01Z" style="fill: white;"/>
    <path d="M38.57,134.61c-.07,0-.14,.03-.21,.03,.06,.1,.12,.06,.21-.03Z" style="fill: white;"/>
    <path d="M14.43,142.88c.15-.18,.45-.42,.73-.64-.17,.06-.4,.24-.73,.64Z" style="fill: white;"/>
    <path d="M237.44,145.15c.45-.22,.04-.11,0,0h0Z" style="fill: white;"/>
    <path d="M241,147.49c-.07,.13-.11,.28-.05,.47-.03-.21,0-.36,.05-.47Z" style="fill: white;"/>
    <path d="M215.55,146.58l-.03-.03c0,.23,0,.19,.03,.03Z" style="fill: white;"/>
    <path d="M238.29,145.26c-.22-.04-.45-.05-.7-.02,.12,.03,.33,.04,.7,.02Z" style="fill: white;"/>
    <path d="M238.05,144.91c.18-.02,.31-.05,.45-.07,0-.16-.08-.22-.45,.07Z" style="fill: white;"/>
    <path d="M236.8,145.42c.26-.11,.53-.15,.79-.18-.11-.02-.17-.06-.15-.09-.13,.06-.32,.14-.64,.27h0Z" style="fill: white;"/>
    <path d="M76.09,122.53s-.05-.06-.07-.11c-.6,.18-.37,.2,.07,.11Z" style="fill: white;"/>
    <path d="M186.97,128.3s.02-.04,.04-.06h-.08l.04,.06h0Z" style="fill: white;"/>
    <path d="M185.56,129.46c.3-1.28,.77-1.3,1.37-1.23-.43-.74-.87-1.48-1.33-2.21-.05,1.14-.06,2.31-.04,3.44Z" style="fill: white;"/>
    <path d="M115.39,155.56l1.03,1.41c-2.26,.28-3.34-.8-2.51,.88,.76-1.15,2.12-.46,3.59,.1,1.43,.61,3,1.04,3.53-.19,.25,.31,.54,.58,.82,.87-.28-.11-.38,.02-.66-.09,1.62,1.84,2.02-1.36,4.41-.43,.82,.42,1.42,.86,.73,1.09l2.13-.37c.58,.11,.39,.59-.2,.45,1.05,.04,2.11,.03,3.15,0l-.02,.08c.46-.43,1.44-1.11,1.89-1.41,.79,.37-.37,.3-.16,.63,.56-.21,1.09-.51,1.62-.78,.76,.6-.57,1.51-1.79,1.42,.88,1.35,1.27,1.12,1.84,.75,.59-.38,1.33-.86,3.2-.44l-1.59,.64c1.31,1.32,2.58,.59,4.69,.98-.3-.18-1.39-.51-2.17-.98-.79-.49-1.23-1.06-.39-1.57,.55,.1,1.26,0,2.07-.78,.28,.94,1.16,.43,2.29-.03l.34,1.23c1.17-.78,.8-1.39,1.3-2.2,1.38-.42,2.05,.35,2.71,.95,2.2-.82-2.11-.75,.25-2.14,1.91-.4,2.85-1.53,4.31-3.3,1.31-.31,.23,.79,.81,.85l.4-1.48c.24-.13,.34,.18,.39,.34,.57-.85-.62-1.1,.39-2.22-.24-.69,.66-.69,1.71-.82,1.02-.15,2.22-.43,2.43-1.62,.57,.02,.31,.75,.72,1.06,1.32-2.35,1.2-1.91,1.87-4.26l1.84-.43c-1.57,.05-1.06-1.83-.63-3.43-.63-.07-1.18-.14-1.49-.13l1.22-1.93c.34,0,.45,.47,.53,1.1,.05-.18,.09-.35,.11-.49,.9-.15,1.07,.68,1.11,1.58-.37-.02-.75-.05-1.11-.09,.09,.94,.25,1.93,.82,2.43,0-.21,.14-.48,.33-.73,.03,.25,.08,.46,.21,.51,.14,.05,.14-.31,.2-.79l1.31,.76-.27-.51,2.74-1.15c.62-2.39,.62-5.16,2.84-7.61,0,1.32,.9,1.46,1.62,2.47-1.49-.51-1.59,1.94-3.03,2.78,.75-.44,.98,.14,.94,.44,.5-.93,1.02-1.83,1.54-2.76,.57,.84,.96,.23,1.81,.1-1.67-1.26,.93-2.37,1.55-3.54,.44,.51,.6,1.23-.65,1.93,2.13,.31,.32-3.1,2.34-2.93-.28,.21-.5,.23-.42,.59,.34-.98,2.31-1.6,2.21-.86l-.28,.19c1.03-.51,2.52-1.36,3.73-2.22,1.21-.87,2.16-1.78,2.01-2.63,.1,.19,.49,2.01,.51,2.38,.22-1.13,.51-2.24,.85-3.39,.34-1.14,.76-2.23,1.23-3.38,0,.76,.6,1.87,.96,2.97s.51,2.18-.21,2.83c.55,.05,1.18,.09,2.09-.62-.36-.13-1.35-1.86-.89-2.1,.86,.64,1.11,.81,1.41,.93,.29,.13,.64,.26,1.51,.83-.55-.23-.31-2.61,.61-2.63-.1,.35,.28,2.25,0,2.5,.58-.78,1.23-1.58,1.93-2.37-.53,.43-.02,1.9,.38,2.54-.1-.22,.31-.22,.76-.15,.45,.06,.89,.2,1.1,.12-.16-.21-.36-.41-.58-.61,.92,.28,1.33-.39,2.11-.98,.72-.58,1.76-1.09,2.66-.21-.59,.11-2.17,1.88-1.88,2.56,.5-.31,1.87-.9,3.49-.92,1.61-.05,3.37,.4,4.3,1.23l-.38,.69,1.47,1.16c-2-.02-6.78-1.43-8.59-1.38-.03,.88-.54,.55,.1,1.47-.33,.65-1.12-.07-1.29-.22,.29,.65,.61,1.52,1.01,2.58,1.12-.76,2.47,1.78,3.4,1.12-1.01-.87-2.07-1.9-2.99-2.63,.56-.38,1.62-.42,2.69,0,1.09,.42,2.12,1.21,2.63,2.33-.16,.81-2.32,.77-2.69,1.02,.56,.07,1.95,1.64,1.8,2l-1.17-.56c.3,1.49,2.69,1.05,2.53,3.16,.23,.54-.45,2.45,.27,2.08,.7-1.69,4.57-4.42,5.85-4.6,0,.11,.11,.89,.18,1.78,.08,.88,.17,1.85,.06,2.34-.38,1.49-3.12,.62-3.47,1.88,.32-.19,1-.04,1.25,.05,.13,.68-1.07,.51-.07,1.46,1.2-.69,1.68,2.19,1.3-.24,1.12,.76,.7,1.24,1.8,2.35,.15-.49,.92-.73,1.81-.84,.89-.1,1.86-.04,2.42,.23-.29,.21-.38,.72-.41,.97,.47,.43,.87,.85,1.23,1.25,.38,.38,.73,.74,1.08,1.09l.53,.53c.2,.16,.39,.31,.6,.48,.42,.31,.86,.66,1.42,.93,.05,.39,1,1.27,.28,1.58,.45-.08,.92-.3,1.68-.08,.52,.81,.1,.71-.41,.61-.5-.08-1.04-.26-.76,.66,.19-.33,.81-.41,1.51-.42,.34,0,.72,0,1.08,.02,.36,0,.73-.05,1.03-.1-.03-.64-.62-.8-1.35-.92-.73-.09-1.67,0-2.27-.04,.35-.79,1.11-1.32,2.08-1.81,.48-.23,1-.42,1.53-.55,.54-.16,1.11-.32,1.67-.38,1.75-.13,.59,1.19,.92,1.01,1.68,.38,2.43-.43,3-1.06,.6-.67,1.01-1.18,2.42-.8,1.27,.86,.45,2.09,.82,2.81-1.51,.69-2.49-.33-3.49-.25,.43,.16,.87,.29,1.32,.43-.45,.41-1.53,.74-2.11,.41,.49,.49,2.11,.52,3.91,.25,1.81-.26,3.78-.8,5.3-.84,.38-.51,1.08-1.15,.55-1.42l-.81,.43c-1.05-.56,1.2-1.68,0-1.7,.92-.96,1.8-2.31,3.56-2.48l.74,1.02c-.17-.32-1.3-.27-1.61,.24,.46-.75,3.04,.59,3.17-1.19l-1.42-.35c.9-1.02,1.81-2.77,3.33-2.99-1.09-.86-.27,.26-1.78-.65,1.52,1.3-3.58,1.35-1.52,2.52-1.61-1.13-2.03,.06-3.82-.76,.18,.36,.73,.55-.47,.79,0,.13-.08,.32-.12,.42h-.09s.05,0,.08,.02c-.03,.07-.03,.09,.03,0,.33,.07,.62,.18,.79,.36-.25,1.09-2.06,1.7-2.53,2.34-.73,.02,.14-.53-.35-.83l-.69,.96c-.36-.83-2.08-.99-.74-1.89-.45,.11-.89,.21-1.32,.29-.88-.31-1.87-.35-2.42,.08-.56-.13-1.36,1.08-.91,.36-.61,.19-1.22,.41-1.86,.49v-.23c-.9-.12-1.88,.04-2.92-.05-.5-.1-1.03-.19-1.49-.48-.45-.32-.88-.7-1.17-1.32-.66-.15-1.44-.2-2.21-1.11l.28-.75c-.43-.11-.81-.71-1.18-1.18-.38-.45-.71-.89-1.13-.73,.18-.55,.11-1.02-.12-1.44-.22-.45-.59-.87-1.02-1.26-.84-.82-1.91-1.62-2.25-2.41l-.85,.56c-.33-.47-.71-.91-1.15-1.36-.45-.44-.97-.88-1.54-1.41l-.7,.56c-1.35-.7-1.25-3.21-2.33-4.98,.37-.04,.55,.46,.56,.89,.25-1.59-.64-2.51-1.68-3.55-1.07-1.09-2.24-2.17-2.73-3.92-.8-.46-1.21-1.01-1.55-1.61,.07,.06,.14,.09,.21,.12-.07-.07-.17-.17-.28-.26-.22-.39-.46-.8-.78-1.18,.22,.41,.41,.78,.62,1.05-.57-.44-1.55-.99-2.6-1.21,0-.35,0-.71-.03-1.06-.09-.02-.16-.05-.25-.07-.94-.72-.96,.15-.69,1-.54-.03-1.04,.03-1.44,.17-.18-.85-.84-.85-1.47-.81-.64,.04-1.24,.11-1.67-.74-.65,.73-4.01,.74-4.19,2.53-.05-.22-.28-.29,.11-.36-.83-.06-1.72-.17-2.34,.46l-.59-1.12c-.49,.68-.96,1.33-1.38,2.01-1.21-.42-1.83-.68-1.01-1.91-1.1,1.08-1.55,1.36-1.96,1.67-.4,.3-.78,.56-1.52,1.64l-.21-.77c-.72,.36-1.42,1.8-2.11,1.43-.55-.14-1.32,.02-2.23,.37-.88,.38-1.94,.91-2.98,1.57-2.14,1.27-4.42,2.86-6.57,3.64,2.09,1.33-2.25,.41-1.26,1.95-.54-.28-1.21-.14-.96-.95-1.4,1.8-3.15,1.43-3.33,3.57-.55-.26-.16-.92-.54-1.03-.06,.2-.23,.81-.61,.71-.38-.11-.05-.56,.06-.97-1.65,1.51-.71,2.95,.2,4.27-1.34,.15-1.68,.57-1.62,1.89-.63-.15-1.47-.16-.56-1.17-.63,.45-4.03,2.33-3.29,3.37-.38-.1-.88,.57-.95,.81-1.37,.98-1.57,.95-2.81,2.03l.49-.1c.38,1.64-.92,1.07-1.9,1.98l-.06-.15c-3.13,.7-.82,1.2-3.99,1.62l.61,.75c.4,.97-.35,1.03-1.31,1.02-.96,0-2.13-.16-2.72,.57l.78,.23c-.27,.53-1.17,.17-2.07-.37-.9-.52-1.78-1.17-2.22-1.17-.23-.11,.18-.36,.37-.57-2.46-.46,.16,1.28-1.36,2.09-.48-.57-.13-1.75-1.19-1.6-.33-.2-.91,.56-1.71,1.14-.78,.65-1.8,1.07-2.58,.52,.35,.49,.75,.97,0,1.44-.6,.09-1.42-.35-2.18-.69-.76-.38-1.46-.49-2.09,.21-.13-.16-.17-.31-.16-.44-.94,.33-3.01,.16-3.81,.83,.01-.86-.34-1.3-.87-1.51-.53-.23-1.25-.3-1.96-.34-1.41-.14-2.8-.29-2.09-1.66l-1.33-.6-1.31-.68,.23-.23c-1.49-1.16-2.45-.92-3.43-.72-.25-.43,.18-.47,.31-.58-1.94-2.15-2.18-2.21-5.04-2.57l.44-.92c-.9,0-2.12-3.87-4.96-5.02,.1-.06,.27-.16,.53-.1-3.12-1.38-3.76-7.49-7.16-5.72l-2.23-.87c1.9,2.15-1.37,.86-.92,2.09-.96-.59-1.39-2.75-.25-1.96l.04,.28c1.66-1.06-2.2-2.88-1.32-3.78-2.21-1.84-4.32-3.8-6.6-5.61-2.27-1.81-4.73-3.47-7.43-4.61l.05,1.6c-.6-.27-1.18-.56-1.8-.81-.38-.47-.28-1.33,1.06-.76-.43-1.08-2.54-.14-2.64,.15-1.24-.68-.9-1-.28-1.21,.61-.21,1.44-.21,1.02-.37-.39-.1-.79-.18-1.19-.24l.22,.23c-1.12,.35-1.33,.88-3,.47-1.02-.48-.39-.99-.82-1.12,.02-.1-.12-.18-.66-.16-.86-.16-1.72-.28-2.58-.41,.32,.42,.63,.84,.92,1.26-1.17,.42-2.34-.21-1.29,1.13-.38-.52-1.15-.84-2.12-1.04-.96-.14-2.12-.19-3.24-.07-.56,.06-1.11,.12-1.63,.18-.52,.09-1,.17-1.44,.25-.87,.13-1.52,.24-1.81,.14-1.32,1.14-2.73,1.49-4.51,1.96,.51,.09,1.14,1.24-.36,1.57-.34-2.73-3.08-.16-4.99-1.38,.79,.36-.24,.87-1.12,1.44-.88,.59-1.64,1.19-.45,1.62-1.27,.37-.51-.87-1.69-.99-1.17,1.19-2.74,1.85-4.43,2.58-1.67,.73-3.5,1.5-4.95,2.75,.16,.32,.98,.4,.62,1.29-.89-.1-1.77-.18-2.66-.25-.5,.59,.65,2.03-1.16,1.88,.33,.12,.83,.3,.5,.69-6.92,3.12-10.59,10.62-18.22,12.47,1.18-.05,.72,.39,.15,.86,.48-.16,.52,.69,.89,1.01-1.06,.27-2.12,.51-3.18,.74,.35,1.4-2.51,1.92-2.06,3.12l.65-.72c-.19,1.96,3.35,1.69,4.34,3.33,.17-2.21,4.66-.32,5.06-3.74,.66-.02,.03,.76,.53,.94-.03-1.02,.44-1.61,1.72-2.19v.25c2.83-2.57,4.59-3.01,8.17-5.28l-.84-.53c.78-.48,1.11-.37,1.59-.46-.11-1.77-2,1.55-2.29-.27,2.15,.7,4.95-4.01,6.93-2.76,1.08-.82-.99-.62,.1-1.44l.65,.25-.19-.82c.79-.45,1.59-.11,1.92,.27-.21,.08-.4,.47-.56,.64,1.33-.13,2.44-2.09,2.9-2.12l-1.26,.44c2.67-2.61,6.73-4.23,9.31-6.78l-.43-.29c1.02-.96,1.57-1.07,2.16-1.13s1.22-.1,2.51-.78l-.06,.14c.38-.64,1.05-1.1,1.82-1.3-.52,.73,1.6,.54,.88,1.39,1.19-.83,1.5-1.07,1.64-1.4,.16-.32,.15-.72,.9-1.73l.59,.63c.49-.8,.48-1.17,1.91-1.59-1.08,.82,1.08,.97-.09,2.01,.79,.27,1.42,.28,1.97,.2,.55-.08,1.02-.35,1.45-.51,.85-.33,1.58-.62,2.21,.61,.68-1,.07-1.31-.65-1.41-.72-.06-1.51,.09-1.14-.14-.34-.32-.08-.72,.42-1.01,.49-.31,1.2-.47,1.69-.33,1.02,.08,1.53,2.65,3.72,2.96-.22-.05-.26,.1-.48,.05,.72,.67,1.78-.43,2.59,.69,.9-1.07,1.28,.43,1.92-1.01-.72-.14-1.47-.17-2.19-.24,.63-.03,1.37-.48,2.18-.62,.8-.15,1.71-.13,2.52,.71-.28,.24-1,.37-1.48,.46,.39,.64,1.19,.15,1.59,.82-.4,.69-1.03,.53-1.77,.27-.75-.2-1.63-.54-2.4-.11,.37,.77,2.63-.35,1.47,1.06,.79-.91,1.31-.6,1.85-.24,.56,.35,1.1,.85,2.19,.45l-.52,.8c.29-.03,.96-.2,1.35,.05-.44,.23-.87,.44-1.3,.7,.79-.19,1.22,.34,1.6,.87,.38,.54,.69,1.17,1.36,1.24-2.17-1.31,.12-1.28-.47-2.44,1.72,.31,1.81,1.09,1.82,1.99,.03,.9,.01,1.84,1.58,2.74-.47-.18-1.14-1.55-.26-1.45,.44,.58,.97,1.39,.99,2.06,2.02,1.35,.31-1,1.48-.81-.07,1.42,1.24,.39,2.33,.83l-.62,.74c1.76,2.33,1.9-1.03,3.36,1.27-.57,.08-1.15,.17-1.72,.26,.41,.21,.83,.43,1.24,.65l-.94,.62c1.63,.39,1.84,.87,2.68,2.09,.22-.72,1.35-1.15,2.31-.25,.25,1.03-1,.31,.44,1.5-.72,.14-1.58,.37-1.54-.83-.28,.17-.72,.15-.99,.32,.23,1.14,1.63,1.77,2.12,2.25-.16-.21-.35-.46-.37-.67l2.88,.94c.06,.56-.39,.53-.83,.5,.47,.31,1.05,.26,1.7,.77-.7,.41-1.23,1.03-2.31,.49l2.51,1.21c-.11,.37,.35,1.63-.1,1.6,.8,1.37,3.73,1.39,4.87,3.15,.18-.05,.43-.02,.83,.17,1.34,1.34,2.09,3.2,4.62,3.68l.27,1.92c1.7,.76-.48-2.45,2.33-1.22,2.02,.78,.02,1.45,.46,2.19,.66-.02,1.58-.1,2.46,.06,.91,.13,1.77,.52,2.44,1.48-.73-.04-1.09-.49-1.7-.68v.08Zm23.11,3.02c-.4,.28-1.21,1.07-1.64,.57,.33-1.19,.8-.73,1.64-.57Zm26.76-18.81c-.02,.43-.47,.61-1.1,.66,.23-.3,.58-.55,1.1-.66Zm67.41,7.51s-.02,.03-.03,.05c-.77-.25-.5-.14,.03-.05Zm1.61,.08c.12-.17,.08-.3-.02-.41-.05,.27-.39,.37-.8,.38,.16,.22,.4,.36,.82,.03ZM71.99,114.77l.36,.32c-.94,.11-.65-.09-.36-.32Z" style="fill: white;"/>
    <path d="M163.41,143.08c-.19-.05-.33-.17-.47-.29-.02,.23,.1,.37,.47,.29Z" style="fill: white;"/>
    <path d="M103.72,148.02s-.03-.03-.04-.05c-.07,.02-.12,.05-.16,.09l.21-.04h0Z" style="fill: white;"/>
    <path d="M207.53,143.54c-.14-.41-.13-.7-.08-.93-.2,.12-.25,.39,.08,.93Z" style="fill: white;"/>
    <path d="M242.34,142.81l-.99,.66c.5-.25,.77-.13,1.09-.09-.11-.2-.43-.42-.1-.57h0Z" style="fill: white;"/>
    <path d="M254,144.4c.11-.18,.33-.16,.44-.34l-.23-.39c-.66,.33-.98,.87-.21,.73Z" style="fill: white;"/>
    <path d="M244.53,145.39c.39,.72,.97,.19,1.67-.26-.04,.02-.09,.05-.13,.05-.21-1.15-.86-.46-1.54,.21h0Z" style="fill: white;"/>
    <path d="M246.37,145.03c.22-.13,.45-.25,.69-.31-.08-.46-.32,.03-.69,.31Z" style="fill: white;"/>
    <path d="M236.11,146.29c.4,.09-.1-1.06,.18-.8,.06-1.09-1.84,1.87-.18,.8Z" style="fill: white;"/>
    <polygon points="246.14 147.63 245.5 146.81 245.37 147.73 246.14 147.63" style="fill: white;"/>
    <path d="M239.81,149.3l1.33-.2c-.08-.15,.04-.3,.21-.45-.77,.26-1.66,.38-1.53,.64h-.01Z" style="fill: white;"/>
    <path d="M241.34,148.66c.4-.13,.77-.3,.93-.54-.21,.09-.66,.3-.93,.54Z" style="fill: white;"/>
    <polygon points="244.58 148.57 244.14 148.52 243.24 148.8 244.58 148.57" style="fill: white;"/>
    <path d="M226.34,150.99l-1.41-.03c-.23,.3,.1,.59,.65,.57,.39-.16,.91-.17,.76-.55h0Z" style="fill: white;"/>
    <path d="M230.6,154.03c-.43-.19-.47-.42-.71-.74l-.03,1.24,.74-.5Z" style="fill: white;"/>
    <path d="M225.95,154.01c-.19,.31-2.54,.44-.46,.83,.24-.26,1.88-.34,.46-.83Z" style="fill: white;"/>
    <polygon points="208.87 139.64 209.1 139.93 210.72 138.69 208.87 139.64" style="fill: white;"/>
    <path d="M196.23,128.83c.21,.66,.75-1.06,.9-.21,.45-.27-.14-.72,.22-.97-.7,.18-.75-.11-1.12,1.18h0Z" style="fill: white;"/>
    <path d="M197.35,127.65c.11-.02,.24-.06,.4-.1-.21,0-.32,.06-.4,.1Z" style="fill: white;"/>
    <path d="M10.66,144.29c-.37,.08-.73,.18-1.09,.25l.94,.18s.15-.43,.15-.43Z" style="fill: white;"/>
    <path d="M9.86,146.68l-.93-.94,.13,1.33c.17-.18,.49-.53,.8-.39Z" style="fill: white;"/>
    <path d="M142.66,160.15v-.33c-.3-.26-.59-.17-1.2-.05,.41,.15,.79,.26,1.2,.38Z" style="fill: white;"/>
    <polygon points="124.46 160.1 124.76 160.2 124.46 158.93 124.46 160.1" style="fill: white;"/>
    <path d="M110.37,155.53c.46,.37,1.18,.51,1.68,.85-1.25-.47-1.01-2.17-1.68-.85Z" style="fill: white;"/>
  </g>
</svg>